<svg width="48" height="48" viewBox="0 0 48 48" fill="none" xmlns="http://www.w3.org/2000/svg">
<path d="M3.42809 20.114C2.62824 21.0182 2.99116 22.2486 4.16761 22.5025C5.08877 22.7012 6.35496 22.923 8.06066 23.1299C8.0201 24.4952 7.99536 26.0793 7.99536 27.9124C7.99536 32.7995 8.17119 35.917 8.35394 37.8373C8.5216 39.5991 9.71677 40.9412 11.4528 41.2282C13.7095 41.6014 17.6144 42 23.9993 42C30.3841 42 34.2891 41.6014 36.5458 41.2282C38.2818 40.9412 39.477 39.5991 39.6446 37.8373C39.8274 35.917 40.0032 32.7995 40.0032 27.9124C40.0032 26.0795 39.9785 24.4954 39.9379 23.1301C41.6442 22.9232 42.9107 22.7014 43.8322 22.5026C45.0089 22.2488 45.3718 21.018 44.5717 20.1136C43.1678 18.5268 40.5575 15.8216 36.0032 11.8123C30.7292 7.1695 27.1929 5.14975 25.3949 4.31228C24.5009 3.89585 23.4997 3.89591 22.6057 4.31242C20.808 5.14997 17.2721 7.16976 11.9974 11.8123C7.44193 15.8219 4.83163 18.5272 3.42809 20.114Z" fill="#212A41"/>
<path d="M26.1467 22.2093C25.5625 22.2936 25.1537 22.7312 25.0985 23.3188C25.0465 23.8714 25 24.7229 25 26C25 27.2771 25.0465 28.1286 25.0985 28.6812C25.1537 29.2688 25.5625 29.7064 26.1467 29.7907C26.861 29.8937 28.0666 30 30 30C31.9334 30 33.139 29.8937 33.8533 29.7907C34.4375 29.7064 34.8463 29.2688 34.9015 28.6812C34.9535 28.1286 35 27.2771 35 26C35 24.7229 34.9535 23.8714 34.9015 23.3188C34.8463 22.7312 34.4375 22.2936 33.8533 22.2093C33.139 22.1063 31.9334 22 30 22C28.0666 22 26.861 22.1063 26.1467 22.2093Z" fill="white"/>
</svg>
